<?xml version="1.0" standalone="no"?>
<!DOCTYPE svg PUBLIC "-//W3C//DTD SVG 20010904//EN"
 "http://www.w3.org/TR/2001/REC-SVG-20010904/DTD/svg10.dtd">
<svg version="1.0" xmlns="http://www.w3.org/2000/svg"
 width="1600.000000pt" height="1600.000000pt" viewBox="0 0 1600.000000 1600.000000"
 preserveAspectRatio="xMidYMid meet">
<metadata>
Created by potrace 1.16, written by Peter Selinger 2001-2019
</metadata>
<g transform="translate(0.000000,1600.000000) scale(0.100000,-0.100000)"
fill="#000000" stroke="none">
<path d="M4503 13635 c-897 -93 -1663 -433 -2237 -994 -690 -676 -1056 -1611
-1056 -2702 0 -1419 665 -2712 2094 -4067 411 -391 763 -693 1571 -1355 870
-712 1277 -1058 1630 -1381 215 -198 635 -624 780 -791 175 -203 225 -249 320
-296 151 -75 317 -87 466 -35 140 49 183 84 378 306 167 191 657 683 886 891
336 303 746 650 1430 1209 1048 856 1406 1170 1891 1654 486 487 778 835 1069
1276 461 698 713 1374 801 2145 21 184 24 661 6 840 -56 528 -176 957 -388
1385 -420 845 -1161 1468 -2084 1753 -224 70 -423 112 -685 148 -194 26 -648
37 -821 19 -631 -64 -1218 -314 -1859 -790 -300 -222 -521 -425 -692 -635 -63
-77 -118 -141 -122 -143 -4 -1 -60 63 -125 142 -167 207 -378 400 -692 636
-576 433 -1116 675 -1729 776 -138 22 -649 28 -832 9z m542 -1205 c140 -14
239 -35 390 -85 394 -129 806 -381 1225 -749 223 -197 507 -494 692 -727 170
-213 308 -290 523 -292 115 -1 184 16 287 70 89 46 143 95 235 212 272 343
643 710 972 960 437 331 840 527 1231 597 168 31 489 21 750 -22 599 -99 1129
-399 1480 -839 263 -330 422 -739 481 -1240 18 -146 18 -587 1 -730 -107 -878
-530 -1641 -1407 -2534 -393 -400 -732 -702 -1815 -1621 -1001 -848 -1457
-1260 -1989 -1793 l-224 -225 -166 171 c-529 541 -1044 1004 -2365 2122 -709
600 -1026 883 -1370 1224 -437 433 -709 754 -948 1122 -314 481 -491 927 -570
1439 -19 127 -22 184 -22 460 0 277 3 333 22 460 70 453 200 780 435 1100 91
124 305 337 433 432 408 302 894 466 1454 491 140 7 168 6 265 -3z"/>
</g>
</svg>
